<?xml version="1.0" encoding="utf-8"?>
<!-- Generator: Adobe Illustrator 23.1.0, SVG Export Plug-In . SVG Version: 6.00 Build 0)  -->
<svg version="1.1" id="Layer_1" xmlns="http://www.w3.org/2000/svg" xmlns:xlink="http://www.w3.org/1999/xlink" x="0px" y="0px"
	 viewBox="0 0 1920 1080" style="enable-background:new 0 0 1920 1080;" xml:space="preserve">
<style type="text/css">
	.st0{fill:#FFFFFF;stroke:#FFFFFF;stroke-miterlimit:10;}
	.st1{fill:#FFFFFF;stroke:#FFFFFF;stroke-width:3.0441;stroke-miterlimit:10;}
</style>
<g>
	<g>
		<path class="st0" d="M286.47,343.19V557.4h-30.08V343.19h-57.48v-26.23h144.87v26.23H286.47z"/>
		<path class="st0" d="M561.08,350.04c24.23,24.29,36.34,53.19,36.34,86.72c0,33.75-12.11,62.74-36.34,86.97
			c-24.23,24.23-53.83,36.34-88.81,36.34c-34.87,0-64.41-12.11-88.64-36.34c-24.23-24.23-36.34-53.22-36.34-86.97
			c0-33.53,12.11-62.43,36.34-86.72c24.23-24.28,53.77-36.42,88.64-36.42C507.25,313.62,536.85,325.76,561.08,350.04z
			 M472.27,340.02c-25.62,0-47.79,9.39-66.5,28.15c-18.71,18.77-28.07,41.63-28.07,68.59c0,27.18,9.36,50.13,28.07,68.84
			c18.71,18.71,40.88,28.07,66.5,28.07c25.73,0,47.95-9.36,66.67-28.07c18.71-18.71,28.07-41.66,28.07-68.84
			c0-26.96-9.36-49.82-28.07-68.59C520.22,349.4,498,340.02,472.27,340.02z"/>
		<path class="st0" d="M656.73,478.7v78.7h-30.24V316.96h68.84c20.05,2.67,36.81,10.81,50.29,24.4
			c15.71,15.7,23.56,34.48,23.56,56.31c0,21.95-7.97,40.94-23.89,56.98c-15.93,16.04-35.53,24.06-58.81,24.06H656.73z
			 M656.73,343.36V452.3h29.74c14.03,0,26.29-5.21,36.76-15.62c10.47-10.41,15.7-23.42,15.7-39.01c0-15.48-5.24-28.4-15.7-38.76
			c-10.47-10.36-22.73-15.54-36.76-15.54H656.73z"/>
		<path class="st0" d="M902.35,321.14v13.37h-90.06v98.08h90.06v13.37h-90.06V557.4h-13.37V321.14H902.35z"/>
		<path class="st0" d="M929.75,557.4V321.14h13.37v222.89h90.06v13.37H929.75z"/>
		<path class="st0" d="M1246.97,353.3c23.67,23.67,35.5,52.21,35.5,85.63c0,33.53-11.83,62.13-35.5,85.8
			c-23.67,23.67-52.27,35.51-85.8,35.51c-33.42,0-61.96-11.83-85.63-35.51c-23.67-23.67-35.5-52.27-35.5-85.8
			c0-33.42,11.83-61.96,35.5-85.63c23.67-23.67,52.22-35.51,85.63-35.51C1194.7,317.79,1223.3,329.63,1246.97,353.3z
			 M1161.17,331.33c-29.63,0-54.97,10.53-76.02,31.58s-31.58,46.4-31.58,76.02c0,29.74,10.53,55.14,31.58,76.19
			c21.05,21.05,46.4,31.58,76.02,31.58c29.74,0,55.14-10.53,76.19-31.58c21.05-21.05,31.58-46.45,31.58-76.19
			c0-29.63-10.53-54.97-31.58-76.02S1190.91,331.33,1161.17,331.33z"/>
		<path class="st0" d="M1510.13,353.3c23.67,23.67,35.5,52.21,35.5,85.63c0,33.53-11.83,62.13-35.5,85.8
			c-23.67,23.67-52.27,35.51-85.8,35.51c-33.42,0-61.96-11.83-85.63-35.51c-23.67-23.67-35.5-52.27-35.5-85.8
			c0-33.42,11.83-61.96,35.5-85.63c23.67-23.67,52.22-35.51,85.63-35.51C1457.86,317.79,1486.46,329.63,1510.13,353.3z
			 M1424.33,331.33c-29.63,0-54.97,10.53-76.02,31.58s-31.58,46.4-31.58,76.02c0,29.74,10.53,55.14,31.58,76.19
			c21.05,21.05,46.4,31.58,76.02,31.58c29.74,0,55.14-10.53,76.19-31.58c21.05-21.05,31.58-46.45,31.58-76.19
			c0-29.63-10.53-54.97-31.58-76.02S1454.07,331.33,1424.33,331.33z"/>
		<path class="st0" d="M1632.19,475.52h-44.11v81.87h-13.37V321.14h61.99c18.04,2.45,33.36,9.97,45.95,22.56
			c15.04,15.15,22.56,33.31,22.56,54.47c0,21.39-7.52,39.6-22.56,54.64c-10.47,10.47-22.45,17.32-35.92,20.55l54.47,84.04h-16.37
			L1632.19,475.52z M1588.08,334.67v127.32h40.1c17.49,0,32.47-6.21,44.95-18.63c12.47-12.42,18.71-27.49,18.71-45.2
			c0-17.6-6.24-32.58-18.71-44.95c-12.48-12.37-27.46-18.55-44.95-18.55H1588.08z"/>
	</g>
	<g>
		<g>
			<path class="st0" d="M354.67,658.68v106.43h-6.02v-99.95l-41.17,53.96l-41.25-53.96v99.95h-6.02V658.68h8.73l38.54,50.43
				l38.46-50.43H354.67z"/>
			<path class="st0" d="M493.62,658.68l38.61,106.43h-6.32l-17.01-46.81h-36.81l-17.31,46.81h-6.4l39.06-106.43H493.62z
				 M506.71,712.35l-16.18-44.63l-16.26,44.63H506.71z"/>
			<path class="st0" d="M653.56,728.23h-19.87v36.88h-6.02V658.68h27.92c8.13,1.11,15.03,4.49,20.7,10.16
				c6.77,6.82,10.16,15,10.16,24.53c0,9.63-3.39,17.84-10.16,24.61c-4.72,4.71-10.11,7.8-16.18,9.26l24.54,37.86h-7.38
				L653.56,728.23z M633.69,664.78v57.35h18.06c7.88,0,14.63-2.8,20.25-8.39c5.62-5.59,8.43-12.38,8.43-20.36
				c0-7.93-2.81-14.68-8.43-20.24c-5.62-5.57-12.37-8.36-20.25-8.36H633.69z"/>
			<path class="st0" d="M835.55,658.68l-27.62,39.97l46.51,66.46h-7.3l-43.05-61.49l-11.44,16.41v45.08h-6.02V658.68h6.02v50.96
				l35.6-50.96H835.55z"/>
			<path class="st0" d="M1001.81,658.68v6.02h-47.19v44.18h47.19v6.02h-47.19v44.18h47.19v6.02H948.6V658.68H1001.81z"/>
			<path class="st0" d="M1132.32,664.7v100.4h-5.95V664.7h-26.95v-6.02h59.84v6.02H1132.32z"/>
			<path class="st0" d="M1263.66,658.68v106.43h-6.02V658.68H1263.66z"/>
			<path class="st0" d="M1375.43,658.68l70.75,99.13v-99.13h6.02v106.43h-9.26l-69.1-96.79v96.79h-6.02V658.68H1375.43z"/>
			<path class="st0" d="M1643.45,751.86c-10.08,9.69-22.15,14.52-36.2,14.52c-15.1,0-27.96-5.31-38.57-15.92
				c-10.61-10.61-15.92-23.47-15.92-38.57c0-15,5.31-27.84,15.92-38.5c10.61-10.66,23.47-15.99,38.57-15.99
				c14.05,0,26.27,4.74,36.65,14.22l-4.59,4.06c-9.14-8.08-19.82-12.12-32.06-12.12c-13.35,0-24.75,4.72-34.21,14.15
				c-9.46,9.44-14.19,20.82-14.19,34.17c0,13.4,4.73,24.81,14.19,34.25c9.46,9.43,20.86,14.15,34.21,14.15
				c11.44,0,21.53-3.51,30.26-10.54v-32.44h5.95V751.86z"/>
		</g>
	</g>
	<line class="st1" x1="198.92" y1="612.88" x2="1721.08" y2="612.88"/>
</g>
</svg>
