<?xml version="1.0" encoding="utf-8"?>
<!-- Generator: Adobe Illustrator 23.1.0, SVG Export Plug-In . SVG Version: 6.00 Build 0)  -->
<svg version="1.1" id="Layer_1" xmlns="http://www.w3.org/2000/svg" xmlns:xlink="http://www.w3.org/1999/xlink" x="0px" y="0px"
	 viewBox="0 0 841.9 595.3" style="enable-background:new 0 0 841.9 595.3;" xml:space="preserve">
<style type="text/css">
	.st0{fill:#8B8B8B;}
	.st1{fill:#095C00;}
	.st2{fill:#919191;}
	.st3{fill:#5E5C5D;}
	.st4{fill:#222222;}
	.st5{fill:#FEFEFE;}
	.st6{fill:#FFFFFF;}
	.st7{fill:#727272;}
	.st8{fill:#010101;}
	.st9{fill:#929192;}
</style>
<g>
	<path d="M291.3,296.5c3-4.9,6-9.7,10-13.7c0,21.7,0.1,43.4,0,65c-0.3,10-0.1,19.9-0.2,29.9c-0.1,4.2-0.2,8.4-0.3,12.6
		c1.1,0,3.4,0,4.5-0.1c24.8-0.7,51.1,14,58.2,38.8c2.6,0.6,5.3,1.3,7.9,1.9c0.8-2.1,1.6-4.3,2.3-6.4c-0.1,2.8-0.2,5.5-0.3,8.3
		c2.5,1.7,4.9,3.3,7.4,5c-2.3,1.4-4.6,2.9-6.9,4.3c-2.8-0.1-5.6-0.1-8.4-0.1c-1.3,9.9-4.8,19.6-10.8,27.7c-3.9,4-8.2,7.6-12.3,11.4
		c6.2,2.6,12.3,5.3,18.6,7.7c-10.3-0.8-19.7-5.3-29.5-8.5c-25.4-10.9-50.1-26.4-65.5-49.9c-12.4-18.5-19.1-42.7-11.1-64.2
		C263.2,341.3,277.1,318.6,291.3,296.5z"/>
	<path d="M529.1,286.5c9.4,12.9,17.5,26.7,25.3,40.5c8.6,14.7,15.8,30.2,20.3,46.6c4,19.7-2.3,40.2-13.2,56.6
		c-15.3,23.6-40,39.1-65.3,50c-9.9,3-19.4,8-29.9,8.3c6.7-2.5,13.3-5.3,19.9-7.9c-3.5-3.2-7.2-6.3-10.7-9.6
		c-7.3-8-11.7-18.2-11.8-29c-2.7-0.1-5.5-0.2-8.2-0.3c-1.9-1.3-3.8-2.6-5.8-3.9c1.6-1,3.2-2.2,4.6-3.4c1.6-2.7,2-5.9,2.3-9
		c0.4,2.9,2,4.6,4.7,5.2c5.8-7.4,8.9-16.6,15.8-23.1c12.7-12.1,30.5-18.3,48-17.3c1,0,2.9,0,3.9,0
		C529.3,355.7,529.2,321.1,529.1,286.5z"/>
	<path d="M376.7,419.3c25.5-0.6,51.1-0.8,76.6,0.1c-6.2,3.2-11.3,8.8-18,10.9c-11.8,0.6-23.6,0-35.4,0.3
		C390.6,431.2,384.4,423.1,376.7,419.3z"/>
</g>
<g>
	<g>
		<path class="st0" d="M413.4,80.3c28.3,34.1,53.4,70.8,79.1,106.8c14.1,20.7,27.9,41.7,41.1,63c18,29.6,35.7,59.7,48.1,92.2
			c7.4,16.7,7.5,35.5,6,53.4c-4.2,29.3-22.2,55.1-44.7,73.6c-9.4,8.5-20.7,14.3-31.2,21.3c-6.1,2.3-12.1,4.7-17.9,7.8
			c-23.4,8.8-48.2,14.9-73.4,13.9c-30.8,1.7-62.1-3-90.3-15.5c-4.4-2.7-9.5-4.1-14.2-6.1c-17.2-10.2-34.5-21.2-47.2-36.8
			c-15.7-17.1-27.4-38.7-29.4-62c-0.8-13.5-0.6-27.3,3.2-40.4c8.9-26.1,21.6-50.7,35.4-74.5C317.8,208,364.7,143.3,413.4,80.3z
			 M413.2,81.8c-19.9,26.4-40.2,52.6-58.9,79.8c-16.7,21.5-30.4,45.1-46.2,67.4c-18.5,29.3-36.5,59.1-51.6,90.4
			c-8.1,18.8-17.8,38.2-16.6,59.3c-1.2,19,4.6,37.7,14.1,54c11.9,18.9,27.6,35.5,46.7,47.3c7.6,4.6,14.6,10.5,23.4,12.8
			c30.8,15.5,66,20.5,100.2,18.5c13.1,0,26.4-0.9,39.1-4.7c13.5-3,27-7,39.3-13.4c9.9-2.8,17.7-9.6,26.5-14.6
			c26.1-17.5,47.8-43.1,55.9-73.8c4.7-21.9,3.5-45.6-6-66.1c-12.4-32.1-30.5-61.5-48.1-90.9c-30.8-49.7-65.2-97-100-144
			C424.8,96.6,420,88.3,413.2,81.8z"/>
	</g>
	<path class="st0" d="M412.2,335.9c10.2,17.7,18.3,36.6,27.9,54.7c1.8,3.1,3.2,6.4,4.3,9.8c-21.1,0-42.2-0.2-63.3,0.1
		c2.3-8.6,7.3-15.9,11.1-23.9C398.7,362.9,406.1,349.7,412.2,335.9z"/>
</g>
<g>
	<g>
		<path class="st1" d="M413.2,81.8c6.8,6.5,11.6,14.8,17.7,21.9c34.8,47,69.2,94.3,100,144c17.6,29.4,35.7,58.8,48.1,90.9
			c9.5,20.5,10.7,44.2,6,66.1c-8.2,30.7-29.9,56.3-55.9,73.8c-8.8,4.9-16.6,11.7-26.5,14.6c-12.3,6.5-25.8,10.4-39.3,13.4
			c-12.6,3.8-25.9,4.7-39.1,4.7c-34.2,2.1-69.5-3-100.2-18.5c-8.8-2.2-15.8-8.1-23.4-12.8c-19-11.8-34.8-28.4-46.7-47.3
			c-9.5-16.2-15.3-35-14.1-54c-1.2-21.1,8.5-40.5,16.6-59.3c15.1-31.3,33.1-61,51.6-90.4c15.7-22.2,29.4-45.8,46.2-67.4
			C373,134.4,393.3,108.3,413.2,81.8z M320.8,253.8c-6.2,6.8-10.6,14.8-16.1,22.1c-1.4,2.1-3.1,4.2-3.4,6.8c-4,4.1-7.1,8.9-10,13.7
			c-14.2,22.1-28.1,44.8-36.5,69.8c-8,21.5-1.2,45.7,11.1,64.2c15.4,23.5,40.1,39,65.5,49.9c9.7,3.2,19.1,7.7,29.5,8.5
			c7.8,2.5,15.7,4.2,23.7,5.9c14.5,4.9,30.3,5.3,45.3,3c5.8-0.8,11.8-1.2,16.9-4.4c6.5-1.6,13.1-2.6,19.5-4.7
			c10.5-0.3,20-5.4,29.9-8.3c25.3-10.9,50-26.5,65.3-50c10.9-16.4,17.2-37,13.2-56.6c-4.5-16.4-11.7-32-20.3-46.6
			c-7.9-13.8-16-27.6-25.3-40.5c-6.9-11.2-14-22.7-22.9-32.5c-6.1,2.4-10.6,7.7-16.2,11.2c-15.2,11-31,21.3-45.9,32.8
			c-3.5,1.5-6.4,3.9-9.5,6.1c-7.3,4.4-13.8,9.9-21.4,13.8c-5.4-3.7-10.8-7.2-16.4-10.7c-4.5-3.1-9.1-6.3-13.5-9.5l-1.2,0.1
			c-13.7-11.4-29.2-20.6-43.4-31.4C332.8,262.2,327.4,257.1,320.8,253.8z"/>
	</g>
</g>
<g>
	<path class="st2" d="M320.8,253.8c6.6,3.2,11.9,8.3,17.9,12.5c-9.2,9.3-16.6,20.2-22.5,31.8c22-0.2,44,0.6,65.9-0.4l1.2-0.1
		c4.5,3.3,9,6.4,13.5,9.5c-0.3,5.7-0.5,11.4-1.8,16.9c-5.2-0.3-10.3-0.4-15.5-0.3l-0.4,2.5c-0.4-0.6-1.2-1.8-1.6-2.4
		c-16.2-0.2-32.4,0.3-48.6-0.1c-5.5-0.1-11-0.4-16.5-0.7c0-4.9-0.1-9.7-0.4-14.6c-6.9,12.1-7.3,26.2-11,39.3c0.1-21.7,0-43.4,0-65
		c0.3-2.6,2-4.7,3.4-6.8C310.2,268.6,314.6,260.6,320.8,253.8z"/>
	<path class="st2" d="M490.1,265.2c5.5-3.5,10.1-8.7,16.2-11.2c8.9,9.7,16,21.3,22.9,32.5c0.1,34.6,0.2,69.2,0,103.8
		c-1,0-2.9,0-3.9,0c5.1-26.4,3.1-54.3-6.3-79.6c-0.4,4.2-0.7,8.4-1,12.6c-5.2,0.2-10.5,0.3-15.7,0.5c-16.1,0.4-32.1,0-48.1,0.2
		c-0.5,0.6-1.4,1.7-1.9,2.3l-0.4-2.4c-5.7-0.5-11.4-0.5-17.1-0.6c-0.1-6.3-0.1-12.7-0.1-19.1c3.1-2.1,6-4.6,9.5-6.1
		c22.8,0.1,45.6,0.3,68.4,0.1C507.6,285.6,498.9,275.1,490.1,265.2z"/>
	<path class="st2" d="M374.2,419.3c0.6,0,1.9,0,2.5,0c7.7,3.8,13.9,11.9,23.2,11.3c11.8-0.2,23.6,0.3,35.4-0.3
		c6.7-2.2,11.8-7.7,18-10.9c0.5,0,1.5,0.1,2,0.1c-0.8,4.9-1.1,10-0.9,15c-1.5,1.3-3,2.4-4.6,3.4c1.9,1.3,3.8,2.6,5.8,3.9
		c-0.2,3.6-0.3,7.3-0.5,10.9c-3-0.1-5.9-0.2-8.9-0.2c-4.3-3.2-8.6-7.7-14.5-7.2c-11.3,0-22.5,0-33.8,0c-5.8-0.4-9.8,4.4-14.2,7.3
		c-3.4,0-6.8-0.2-10.3-0.4c0.1-3.4,0.3-6.7,0.4-10.1c2.3-1.4,4.6-2.9,6.9-4.3c-2.5-1.7-4.9-3.4-7.4-5c0.1-2.8,0.1-5.5,0.3-8.3
		C373.8,423.3,374.1,420.6,374.2,419.3z"/>
</g>
<g>
	<path class="st3" d="M444.2,298c14.9-11.5,30.7-21.8,45.9-32.8c8.8,10,17.6,20.4,22.5,32.9C489.8,298.3,467,298.2,444.2,298z"/>
	<path class="st3" d="M338.8,266.3c14.2,10.8,29.7,20,43.4,31.4c-22,1-44,0.3-65.9,0.4C322.2,286.5,329.6,275.6,338.8,266.3z"/>
	<g>
		<path class="st3" d="M413.3,317.9c7.6-3.8,14.1-9.4,21.4-13.8c0,6.3,0,12.7,0.1,19.1c5.7,0,11.4,0,17.1,0.6
			c-5.3,0.2-10.7,0.4-16,0.6c2.9,16.3,9.2,33.8,23.8,43.1c9.5,6.5,22.7,6.9,32.4,0.7c15.1-9.2,22.5-27,24.3-44
			c-4.7-0.2-9.3-0.4-14-0.5c5.2-0.1,10.5-0.3,15.7-0.5c0.3-4.2,0.6-8.4,1-12.6c9.4,25.3,11.4,53.2,6.3,79.6
			c-17.5-1-35.3,5.2-48,17.3c-6.8,6.6-10,15.8-15.8,23.1c-2.7-0.5-4.3-2.2-4.7-5.2c-0.3,3.1-0.7,6.3-2.3,9c-0.2-5,0.1-10,0.9-15
			c-0.5,0-1.5-0.1-2-0.1c-25.5-1-51.1-0.7-76.6-0.1c-0.6,0-1.9,0-2.5,0c-0.1,1.3-0.4,3.9-0.5,5.2c-0.7,2.1-1.5,4.3-2.3,6.4
			c-2.6-0.7-5.3-1.3-7.9-1.9c-7.1-24.8-33.4-39.4-58.2-38.8c-0.6-4.4-1.5-8.9-4.2-12.6c0.2-10-0.1-19.9,0.2-29.9
			c3.7-13.1,4.1-27.2,11-39.3c0.3,4.9,0.4,9.7,0.4,14.6c5.5,0.3,11,0.5,16.5,0.7c-5.2,0.1-10.3,0.3-15.5,0.6
			c2.6,13.2,6.4,27,16,36.9c7.5,8.2,19.2,13.2,30.3,10.7c13.6-2.9,23.5-14.4,28.7-26.7c2.7-6.9,4.1-14.1,6.4-21.2
			c1.3-5.5,1.5-11.2,1.8-16.9C402.5,310.6,407.9,314.2,413.3,317.9z M412.2,335.9c-6.1,13.8-13.6,27-19.9,40.8
			c-3.8,7.9-8.8,15.3-11.1,23.9c21.1-0.4,42.2-0.2,63.3-0.1c-1.1-3.4-2.5-6.7-4.3-9.8C430.6,372.5,422.5,353.6,412.2,335.9z"/>
	</g>
	<path class="st3" d="M365.4,442.1c2.8,0,5.6,0.1,8.4,0.1c-0.1,3.4-0.3,6.7-0.4,10.1c3.4,0.2,6.8,0.4,10.3,0.4
		c20.8,0.2,41.7,0.4,62.5-0.1c3,0,5.9,0.1,8.9,0.2c0.2-3.6,0.3-7.3,0.5-10.9c2.7,0.1,5.5,0.2,8.2,0.3c0.1,10.9,4.5,21,11.8,29
		c-14.2,8-28.9,15.9-45.3,18.1c-26.3,3.5-55.1-2-75.6-19.5C360.6,461.7,364.1,452,365.4,442.1z"/>
</g>
<g>
	<path class="st4" d="M313.6,324.3c5.2-0.3,10.3-0.5,15.5-0.6c-1.2,12.1,8.6,22.7,20.4,24.1c13.6,2.8,29.7-6.8,29.8-21.6l0.4-2.5
		c5.2-0.1,10.3,0,15.5,0.3c-2.2,7-3.7,14.3-6.4,21.2c-5.2,12.3-15.2,23.9-28.7,26.7c-11.2,2.5-22.8-2.5-30.3-10.7
		C320,351.3,316.2,337.5,313.6,324.3z"/>
	<path class="st4" d="M435.8,324.3c5.3-0.2,10.7-0.4,16-0.6l0.4,2.4c-0.2,14.9,16.2,24.5,29.7,21.7c11.7-1.4,21.7-12,20.3-24.1
		c4.7,0.1,9.3,0.3,14,0.5c-1.8,17-9.1,34.8-24.3,44c-9.7,6.2-22.9,5.8-32.4-0.7C444.9,358.1,438.7,340.6,435.8,324.3z"/>
</g>
<g>
	<path class="st5" d="M329.1,323.7c16.2,0.4,32.4,0,48.6,0.1c0.4,0.6,1.2,1.8,1.6,2.4c0,14.8-16.2,24.4-29.8,21.6
		C337.8,346.5,327.9,335.8,329.1,323.7z"/>
</g>
<g>
	<path class="st6" d="M454.1,323.9c16-0.2,32.1,0.2,48.1-0.2c1.4,12.1-8.6,22.7-20.3,24.1c-13.6,2.8-29.9-6.8-29.7-21.7
		C452.6,325.6,453.6,324.5,454.1,323.9z"/>
</g>
<g>
	<path class="st7" d="M301,377.7c2.7,3.7,3.6,8.1,4.2,12.6c-1.1,0-3.4,0-4.5,0.1C300.8,386.1,300.9,381.9,301,377.7z"/>
</g>
<g>
	<path class="st8" d="M383.7,452.7c4.5-2.8,8.4-7.7,14.2-7.3c11.3,0,22.5,0,33.8,0c5.8-0.5,10.2,3.9,14.5,7.2
		C425.4,453,404.5,452.8,383.7,452.7z"/>
	<path class="st8" d="M384.6,494.8c20.6,3,41.8,2.9,62.2-1.4c-5,3.2-11.1,3.6-16.9,4.4C414.9,500.1,399.1,499.7,384.6,494.8z"/>
</g>
<g>
	<path class="st9" d="M342.3,481.2c4.1-3.8,8.4-7.4,12.3-11.4c20.5,17.5,49.3,23,75.6,19.5c16.4-2.2,31.1-10.1,45.3-18.1
		c3.4,3.3,7.1,6.4,10.7,9.6c-6.6,2.6-13.2,5.4-19.9,7.9c-6.3,2.1-13,3.1-19.5,4.7c-20.4,4.3-41.6,4.4-62.2,1.4
		c-8-1.7-15.9-3.4-23.7-5.9C354.7,486.4,348.5,483.8,342.3,481.2z"/>
</g>
</svg>
